<svg height="512" viewBox="0 0 64 64" width="512" xmlns="http://www.w3.org/2000/svg">
<style>
path{fill:#2f4cdd;}
</style>
<g id="Taxi-Smartphone-Wifi-Travel-Cab"><path d="m35.62 36h20.76l-2-4h-16.76z"/><path d="m59 45.82a3 3 0 0 1 -1 .18h-3v2h4z"/><path d="m38.28 30h15.44l-.5-2h-14.44z"/><path d="m43 24h6v2h-6z"/><path d="m59 43v-4a1 1 0 0 0 -1-1h-24a1 1 0 0 0 -1 1v4a1 1 0 0 0 1 1h24a1 1 0 0 0 1-1zm-22 0a2 2 0 1 1 2-2 2 2 0 0 1 -2 2zm12-1h-6v-2h6zm6 1a2 2 0 1 1 2-2 2 2 0 0 1 -2 2z"/><path d="m37 46h-3a3 3 0 0 1 -1-.18v2.18h4z"/><path d="m29 26a8 8 0 1 0 -8 8 8.009 8.009 0 0 0 8-8zm-14.364-2.364a9.01 9.01 0 0 1 12.728 0l-1.414 1.414a7.011 7.011 0 0 0 -9.9 0zm2.829 2.828a5 5 0 0 1 7.07 0l-1.414 1.414a3.074 3.074 0 0 0 -4.242 0zm2.535 2.536h2v2h-2z"/><path d="m27 54h-4a1 1 0 0 0 0 2h4a1 1 0 0 0 0-2z"/><path d="m39 4h-28a4 4 0 0 0 -4 4v48a4 4 0 0 0 4 4h28a4 4 0 0 0 4-4v-10h-4v2a2.006 2.006 0 0 1 -2 2h-4a2.006 2.006 0 0 1 -2-2v-9a2.942 2.942 0 0 1 .4-1.47 3 3 0 0 1 1.6-5.53 2.949 2.949 0 0 1 1.99.78l1.07-2.13.78-3.14a1.992 1.992 0 0 1 1.94-1.51h2.22v-3a1 1 0 0 1 1-1h1v-14a4 4 0 0 0 -4-4zm-17 2h6v2h-6zm-4 0h2v2h-2zm9 52h-4a3 3 0 0 1 0-6h4a3 3 0 0 1 0 6zm-6-22a10 10 0 1 1 10-10 10.016 10.016 0 0 1 -10 10z"/><circle cx="33" cy="35" r="1"/><circle cx="59" cy="35" r="1"/></g></svg>