<svg height="512pt" viewBox="0 0 512 512" width="512pt" xmlns="http://www.w3.org/2000/svg">
<style>
path{fill:#2f4cdd;}
</style>
<path d="m0 330h512v92h-512zm0 0"/><path d="m166 165c8.277344 0 15-6.722656 15-15s-6.722656-15-15-15-15 6.722656-15 15 6.722656 15 15 15zm0 0"/><path d="m166 225c41.351562 0 75-33.648438 75-75s-33.648438-75-75-75-75 33.648438-75 75 33.648438 75 75 75zm0-120c24.8125 0 45 20.1875 45 45s-20.1875 45-45 45-45-20.1875-45-45 20.1875-45 45-45zm0 0"/><path d="m0 300h512v-300h-512zm451-105h-90v-30h90zm-90-150h90v30h-90zm-60 0h30v30h-30zm0 60h150v30h-150zm0 60h30v30h-30zm0 60h150v30h-150zm-135-180c57.890625 0 105 47.109375 105 105s-47.109375 105-105 105-105-47.109375-105-105 47.109375-105 105-105zm0 0"/><path d="m181 452v30h-60v30h270v-30h-60v-30zm0 0"/></svg>