<svg id="Layer_1" enable-background="new 0 0 510 510" height="512" viewBox="0 0 510 510" width="512" xmlns="http://www.w3.org/2000/svg">
<style>
path{fill:#2f4cdd;}
</style>
<g><g><path d="m195 104.94h75v90h-75z"/><path d="m112.812 194.94h52.188v-90h-75v67.188c0 12.579 10.233 22.812 22.812 22.812z"/><path d="m300 104.94h75v90h-75z"/><path d="m405 226.44c0 15.715 12.785 28.5 28.5 28.5h73.396c-2.251-14.539-5.713-28.885-10.393-42.926l-25.828-77.482c-5.899-17.699-22.399-29.592-41.056-29.592h-24.619z"/><path d="m433.5 284.94c-32.257 0-58.5-26.243-58.5-58.5v-1.5h-262.188c-29.121 0-52.812-23.691-52.812-52.811v-67.189h-16.723c-23.863 0-43.277 19.414-43.277 43.278v149.229c0 16.702 9.962 31.645 25.377 38.066l30.15 12.563c-.334-2.667-.527-5.379-.527-8.136 0-35.841 29.159-65 65-65s65 29.159 65 65c0 5.164-.623 10.181-1.766 15h93.533c-1.143-4.819-1.766-9.836-1.766-15 0-35.841 29.159-65 65-65s65 29.159 65 65c0 5.164-.623 10.181-1.766 15h60.361c25.588 0 46.406-20.817 46.406-46.406 0 0-.07-20.184-.202-23.594zm-173.5 0h-45v-30h45z"/><circle cx="120" cy="339.94" r="35"/><circle cx="340" cy="339.94" r="35"/></g><path d="m394.652 375.06c-11.579 17.957-31.743 29.88-54.652 29.88s-43.073-11.924-54.652-29.881h-110.696c-11.579 17.958-31.743 29.881-54.652 29.881s-43.073-11.924-54.652-29.881h-65.348v30h510v-30h-115.348z"/></g></svg>